<svg xmlns="http://www.w3.org/2000/svg" width="800" height="450" viewBox="0 0 800 450" role="img">
<rect x="0" y="0" width="800" height="450" fill="#0f1218" />
<rect x="56" y="34" width="688" height="386" fill="rgba(232,238,247,0.06)" stroke="rgba(232,238,247,0.28)" stroke-width="1" rx="6" />
<text x="78" y="76" font-size="26" fill="#e8eef7">transfer slip</text>
<line x1="78" y1="88.5" x2="530.8" y2="88.5" stroke="rgba(232,238,247,0.5)" stroke-width="1" />
<text x="78" y="126" font-size="20" fill="#e8eef7" fill-opacity="0.82">Time</text>
<text x="202" y="126" font-size="22" fill="#e8eef7">8:40</text>
<text x="78" y="154" font-size="20" fill="#e8eef7" fill-opacity="0.82">place</text>
<text x="202" y="154" font-size="22" fill="#e8eef7">thirty feet out in the shallow water</text>
<text x="78" y="182" font-size="20" fill="#e8eef7" fill-opacity="0.82">species</text>
<text x="202" y="182" font-size="22" fill="#e8eef7">Great blue heron, adult</text>
<text x="78" y="210" font-size="20" fill="#e8eef7" fill-opacity="0.82">condition</text>
<text x="202" y="210" font-size="22" fill="#e8eef7">one wing carried wrong</text>
<line x1="78" y1="222.5" x2="722" y2="222.5" stroke="rgba(232,238,247,0.5)" stroke-width="1" />
<text x="78" y="260" font-size="22" fill="#e8eef7">the name of the keeper who found the bird</text>
<line x1="633.2" y1="265.5" x2="722" y2="265.5" stroke="rgba(232,238,247,0.28)" stroke-width="1" data-empty-field="1" />
<text x="78" y="300" font-size="22" fill="#e8eef7"><tspan x="78" dy="0">both signatures</tspan></text>
<line x1="78" y1="312.5" x2="722" y2="312.5" stroke="rgba(232,238,247,0.5)" stroke-width="1" />
<text x="78" y="336" font-size="20" fill="#e8eef7"><tspan x="78" dy="0">Whitlock</tspan></text>
<line x1="78" y1="337.5" x2="722" y2="337.5" stroke="rgba(232,238,247,0.28)" stroke-width="1" />
<text x="78" y="364" font-size="20" fill="#e8eef7"><tspan x="78" dy="0">Alva Reyes</tspan></text>
<g transform="rotate(-12 632.4 72)">
<rect x="546.8" y="52" width="171.2" height="40" fill="none" stroke="rgba(232,238,247,0.65)" stroke-width="2" rx="4" data-stamp="1" />
<text x="632.4" y="80" font-size="22" fill="#b45309" text-anchor="middle">carbon copy</text>
</g>
</svg>
