<svg xmlns="http://www.w3.org/2000/svg" viewBox="0 0 292 136" width="292" height="136" role="img"><rect width="292" height="136" fill="#11131a"/><circle cx="33.5" cy="63.5" r="5" fill="#e0692b"/><circle cx="48.5" cy="63.5" r="5" fill="#e0692b"/><circle cx="33.5" cy="78.5" r="5" fill="#e0692b"/><circle cx="48.5" cy="78.5" r="5" fill="#e0692b"/><circle cx="63.5" cy="78.5" r="5" fill="#e0692b"/><circle cx="78.5" cy="78.5" r="5" fill="#e0692b"/><text x="56" y="103" fill="#8b93a7" font-family="system-ui,sans-serif" font-size="12" text-anchor="middle">Figure 1</text><circle cx="123.5" cy="48.5" r="5" fill="#e0692b"/><circle cx="138.5" cy="48.5" r="5" fill="#e0692b"/><circle cx="123.5" cy="63.5" r="5" fill="#e0692b"/><circle cx="138.5" cy="63.5" r="5" fill="#e0692b"/><circle cx="153.5" cy="63.5" r="5" fill="#e0692b"/><circle cx="168.5" cy="63.5" r="5" fill="#e0692b"/><circle cx="123.5" cy="78.5" r="5" fill="#e0692b"/><circle cx="138.5" cy="78.5" r="5" fill="#e0692b"/><circle cx="153.5" cy="78.5" r="5" fill="#e0692b"/><circle cx="168.5" cy="78.5" r="5" fill="#e0692b"/><text x="146" y="103" fill="#8b93a7" font-family="system-ui,sans-serif" font-size="12" text-anchor="middle">Figure 2</text><circle cx="213.5" cy="33.5" r="5" fill="#e0692b"/><circle cx="228.5" cy="33.5" r="5" fill="#e0692b"/><circle cx="213.5" cy="48.5" r="5" fill="#e0692b"/><circle cx="228.5" cy="48.5" r="5" fill="#e0692b"/><circle cx="243.5" cy="48.5" r="5" fill="#e0692b"/><circle cx="258.5" cy="48.5" r="5" fill="#e0692b"/><circle cx="213.5" cy="63.5" r="5" fill="#e0692b"/><circle cx="228.5" cy="63.5" r="5" fill="#e0692b"/><circle cx="243.5" cy="63.5" r="5" fill="#e0692b"/><circle cx="258.5" cy="63.5" r="5" fill="#e0692b"/><circle cx="213.5" cy="78.5" r="5" fill="#e0692b"/><circle cx="228.5" cy="78.5" r="5" fill="#e0692b"/><circle cx="243.5" cy="78.5" r="5" fill="#e0692b"/><circle cx="258.5" cy="78.5" r="5" fill="#e0692b"/><text x="236" y="103" fill="#8b93a7" font-family="system-ui,sans-serif" font-size="12" text-anchor="middle">Figure 3</text></svg>