<svg xmlns="http://www.w3.org/2000/svg" width="800" height="450" viewBox="0 0 800 450" role="img">
<rect x="0" y="0" width="800" height="450" fill="#0f1218" />
<rect x="56" y="34" width="688" height="386" fill="rgba(232,238,247,0.06)" stroke="rgba(232,238,247,0.28)" stroke-width="1" rx="6" />
<text x="78" y="76" font-size="26" fill="#e8eef7">the log sheets</text>
<line x1="78" y1="88.5" x2="722" y2="88.5" stroke="rgba(232,238,247,0.5)" stroke-width="1" />
<text x="78" y="138" font-size="22" fill="#e8eef7"><tspan x="78" dy="0">what happened</tspan></text>
<line x1="78" y1="150.5" x2="722" y2="150.5" stroke="rgba(232,238,247,0.5)" stroke-width="1" />
<text x="78" y="174" font-size="20" fill="#e8eef7"><tspan x="78" dy="0">entry at ten fourteen</tspan></text>
<line x1="78" y1="175.5" x2="722" y2="175.5" stroke="rgba(232,238,247,0.28)" stroke-width="1" />
<text x="78" y="202" font-size="20" fill="#e8eef7"><tspan x="78" dy="0">contact with front desk staff</tspan></text>
<line x1="78" y1="203.5" x2="722" y2="203.5" stroke="rgba(232,238,247,0.28)" stroke-width="1" />
<text x="78" y="230" font-size="20" fill="#e8eef7"><tspan x="78" dy="0">two clicks at ten twenty-two</tspan></text>
<line x1="78" y1="231.5" x2="722" y2="231.5" stroke="rgba(232,238,247,0.28)" stroke-width="1" />
<text x="78" y="258" font-size="20" fill="#e8eef7"><tspan x="78" dy="0">the folder located and photographed and put back</tspan></text>
<line x1="78" y1="259.5" x2="722" y2="259.5" stroke="rgba(232,238,247,0.28)" stroke-width="1" />
<text x="78" y="286" font-size="20" fill="#e8eef7"><tspan x="78" dy="0">exit at ten forty-one</tspan></text>
<line x1="78" y1="358.5" x2="722" y2="358.5" stroke="rgba(232,238,247,0.28)" stroke-width="1" />
<text x="78" y="376" font-size="20" fill="#e8eef7"><tspan x="78" dy="0">Thirty seconds lost on the second floor landing,</tspan> <tspan x="78" dy="22">cause unknown, no action taken.</tspan></text>
</svg>
